# xmcd CD database file
#
# Track frame offsets:
#	182
#	20657
#	48777
#	62897
#	82020
#	110417
#	131795
#	152387
#	180097
#	197597
#	217627
#	242927
#
# Disc length: 3722 seconds
#
# Revision: 2
# Processed by: cddbd v1.5.2PL0 Copyright (c) Steve Scherf et al.
# Submitted via: ACXtractor (MTCDDB.DLL V2003.12.21)
#
DISCID=960e880c
DTITLE=Dirty Blues Band - Still live
DYEAR=1994
DGENRE=Blues
TTITLE0=Checking Up
TTITLE1=Stevie`s Blues
TTITLE2=My Babe W. Dixon
TTITLE3=Sweet Home Chicago
TTITLE4=Good Tender Woman
TTITLE5=Kansas City
TTITLE6=I Payed It All
TTITLE7=Stormy Monday Blues
TTITLE8=Dust My Broom
TTITLE9=Shake Your Money Maker
TTITLE10=She`s Looking Good
TTITLE11=Slow Blues In D
EXTD=DD - Club Siegen 15.01.94 ID3G:   0 YEAR: 1994
EXTT0=
EXTT1=
EXTT2=
EXTT3=
EXTT4=
EXTT5=
EXTT6=
EXTT7=
EXTT8=
EXTT9=
EXTT10=
EXTT11=
PLAYORDER=
